<?xml version="1.0" encoding="utf-8"?>
<!-- Generator: Adobe Illustrator 22.1.0, SVG Export Plug-In . SVG Version: 6.00 Build 0)  -->
<svg version="1.1" id="Layer_1" xmlns="http://www.w3.org/2000/svg" xmlns:xlink="http://www.w3.org/1999/xlink" x="0px" y="0px"
	 viewBox="0 0 118 118" style="enable-background:new 0 0 118 118;" xml:space="preserve">
<style type="text/css">
	.st0{fill:#212121;}
</style>
<title>ic-ss-logo</title>
<g id="_Group_">
	<path class="st0" d="M72.3,35.9c-5.5,0-9.9,4.4-9.9,9.9c0,2.2,0.7,4.3,2,6l12.7,17.7c1.5,2.6,0.6,6-2,7.6c-2.6,1.5-6,0.6-7.6-2
		c-1.5-2.6-0.7-5.9,1.8-7.5l0.2-0.1c1-0.7,1.3-2,0.6-3c-0.4-0.6-1.1-1-1.8-1c-0.3,0-0.7,0.1-1,0.3l-0.2,0.1c-4.6,2.9-6.1,9-3.2,13.6
		c2.9,4.6,9,6.1,13.6,3.2c4.6-2.9,6.1-9,3.2-13.6c-0.2-0.3-0.4-0.5-0.5-0.8L67.5,48.5c-0.5-0.8-0.7-1.8-0.7-2.8
		c0-3.1,2.5-5.5,5.5-5.5s5.5,2.5,5.5,5.5c0,1.9-1,3.6-2.6,4.7c-0.1,0-0.1,0.1-0.2,0.1c-1,0.7-1.3,2-0.6,3c0.4,0.6,1.1,0.9,1.8,1
		c0.3,0,0.7-0.1,1-0.3l0.2-0.1c4.6-2.9,6.1-9,3.2-13.6C78.8,37.6,75.6,35.9,72.3,35.9L72.3,35.9z"/>
	<path class="st0" d="M72.3,75c1.5,0,2.8-1.2,2.8-2.8c0-1.5-1.2-2.8-2.8-2.8c-1.5,0-2.8,1.2-2.8,2.8c0,0,0,0,0,0
		C69.5,73.8,70.8,75,72.3,75C72.3,75,72.3,75,72.3,75z"/>
	<path class="st0" d="M72.3,43c-1.5,0-2.8,1.2-2.8,2.8c0,1.5,1.2,2.8,2.8,2.8c1.5,0,2.8-1.2,2.8-2.8C75,44.2,73.8,43,72.3,43z"/>
	<path class="st0" d="M59,1C27,1,1,27,1,59s26,58,58,58s58-26,58-58l0,0C117,27,91,1,59,1z M45.8,84.9c-7,0-12.7-5.6-12.7-12.6
		c0-5.1,3-9.7,7.7-11.7l-5.3-7.4c-4.1-5.7-2.8-13.6,2.8-17.6s13.6-2.8,17.6,2.8s2.8,13.6-2.8,17.6c-0.8,0.6-1.6,1-2.5,1.4l5.5,7.8
		c3.9,5.8,2.4,13.6-3.4,17.5C50.7,84.1,48.3,84.9,45.8,84.9z M82.8,65.2c3.9,5.8,2.4,13.6-3.4,17.5c-5.8,3.9-13.6,2.4-17.5-3.4
		c-3.9-5.8-2.4-13.6,3.4-17.5c0.7-0.5,1.4-0.8,2.1-1.2L62,53.2c-4.1-5.7-2.8-13.6,2.8-17.7c5.7-4.1,13.6-2.8,17.7,2.8
		c4.1,5.7,2.8,13.6-2.8,17.7c-0.8,0.6-1.6,1-2.5,1.4L82.8,65.2z"/>
	<path class="st0" d="M40.9,48.5c-0.5-0.8-0.7-1.8-0.7-2.8c0-3.1,2.5-5.5,5.5-5.5c3.1,0,5.5,2.5,5.5,5.5c0,1.9-1,3.7-2.6,4.7
		l-0.2,0.1c-1,0.7-1.3,2-0.6,3c0.4,0.6,1.1,0.9,1.8,1c0.3,0,0.7-0.1,1-0.3l0.2-0.1c4.7-2.9,6.1-9,3.3-13.6c-2.9-4.7-9-6.1-13.6-3.3
		s-6.1,9-3.3,13.6c0.2,0.3,0.4,0.6,0.6,0.8l12.7,17.7c0.5,0.8,0.7,1.8,0.7,2.8c0,3.1-2.4,5.5-5.5,5.6c-3.1,0-5.5-2.4-5.6-5.5
		c0-1.9,1-3.7,2.6-4.7l0.2-0.1c1-0.7,1.3-2,0.6-3c-0.4-0.6-1.1-1-1.8-1c-0.3,0-0.7,0.1-1,0.3l-0.2,0.1c-4.6,2.9-6.1,9-3.2,13.6
		s9,6.1,13.6,3.2c2.9-1.8,4.7-5,4.7-8.4c0-2.2-0.7-4.3-2-6L40.9,48.5z"/>
	<path class="st0" d="M45.8,75c1.5,0,2.8-1.2,2.8-2.8c0-1.5-1.2-2.8-2.8-2.8c-1.5,0-2.8,1.2-2.8,2.8c0,0,0,0,0,0
		C43,73.8,44.2,75,45.8,75z"/>
	<path class="st0" d="M45.8,43c-1.5,0-2.8,1.2-2.8,2.7c0,1.5,1.2,2.8,2.7,2.8s2.8-1.2,2.8-2.7c0,0,0,0,0,0
		C48.5,44.2,47.3,43,45.8,43z"/>
</g>
</svg>
